PathFileType	4	(X/Y/Z)	subject01_walk1.trc
DataRate	CameraRate	NumFrames	NumMarkers	Units	OrigDataRate	OrigDataStartFrame	OrigNumFrames
60.00	60.00	       4	41	mm	60.00	95	       251
Frame#	Time	R.ASIS			L.ASIS			V.Sacral			R.Thigh.Upper			R.Thigh.Front			R.Thigh.Rear			L.Thigh.Upper			L.Thigh.Front			L.Thigh.Rear			R.Shank.Upper			R.Shank.Front			R.Shank.Rear			L.Shank.Upper			L.Shank.Front			L.Shank.Rear			R.Heel			R.Midfoot.Sup			R.Midfoot.Lat			R.Toe.Tip			L.Heel			L.Midfoot.Sup			L.Midfoot.Lat			L.Toe.Tip			Sternum			R.Acromium			L.Acromium			R.Bicep			L.Bicep			R.Elbow			L.Elbow			R.Wrist.Med			R.Wrist.Lat			L.Wrist.Med			L.Wrist.Lat			R.Toe.Lat			R.Toe.Med			L.Toe.Lat			L.Toe.Med			R.Temple			L.Temple			Top.Head			
		X1	Y1	Z1	X2	Y2	Z2	X3	Y3	Z3	X4	Y4	Z4	X5	Y5	Z5	X6	Y6	Z6	X7	Y7	Z7	X8	Y8	Z8	X9	Y9	Z9	X10	Y10	Z10	X11	Y11	Z11	X12	Y12	Z12	X13	Y13	Z13	X14	Y14	Z14	X15	Y15	Z15	X16	Y16	Z16	X17	Y17	Z17	X18	Y18	Z18	X19	Y19	Z19	X20	Y20	Z20	X21	Y21	Z21	X22	Y22	Z22	X23	Y23	Z23	X24	Y24	Z24	X25	Y25	Z25	X26	Y26	Z26	X27	Y27	Z27	X28	Y28	Z28	X29	Y29	Z29	X30	Y30	Z30	X31	Y31	Z31	X32	Y32	Z32	X33	Y33	Z33	X34	Y34	Z34	X35	Y35	Z35	X36	Y36	Z36	X37	Y37	Z37	X38	Y38	Z38	X39	Y39	Z39	X40	Y40	Z40	X41	Y41	Z41	

95      0.94000000	    626.53977265	   1079.64970621	    170.23657923	    619.50631820	   1072.17944811	    -90.32604598	    424.32048366	   1073.48005141	     53.29686321	    608.39968023	    755.37685482	    214.89810363	    673.21366625	    699.21708097	    119.15229811	    610.32501661	    633.32825570	    203.14177521	    622.75639760	    769.00259234	   -158.84295357	    730.32244281	    753.77880990	   -114.61880383	    654.66955654	    662.93662589	   -154.28961630	    550.63216540	    458.64409868	    186.32930826	    625.88336915	    420.15746459	    133.04375615	    558.32829637	    372.03680637	    190.70611899	    616.17142941	    488.73835878	   -156.06342013	    618.43929486	    416.56060933	   -105.30024671	    567.93531402	    472.13418601	   -156.84046912	    463.56601722	     71.12598799	     95.99065890	    609.45137773	     78.37134955	     70.16073890	    596.29450437	     62.79076489	    176.14049325	    751.19779157	     49.19860655	    119.97431565	    303.95285586	    287.21403138	    -43.87101603	    421.40183924	    163.52462869	    -35.35319951	    391.73473224	    170.81499039	   -129.21363430	    473.31279802	     66.88669287	    -73.17384101	    647.52665434	   1383.65003719	     41.30652415	    558.58113034	   1465.66376415	    259.04793619	    568.86207555	   1506.37779982	   -157.53055193	    572.51412216	   1262.99699157	    301.43809280	    567.41224709	   1269.69521505	   -200.56897774	    536.29906702	   1157.70344900	    331.44626144	    507.11010205	   1181.19181213	   -240.37164061	    708.18463330	    950.19108879	    311.77309171	    671.08673834	    928.95923191	    361.96360546	    596.68191249	    943.45231848	   -207.24804846	    550.82546626	    940.35048898	   -267.47718302	    683.54870144	     39.29832024	    196.01964707	    695.90558288	     47.05438586	     85.97218934	    413.80994487	    107.47126659	   -142.21302146	    443.44323021	    101.11299201	    -42.87577494	    716.15117379	   1600.66236950	    139.07751452	    728.75063758	   1609.75669368	      0.33158347	    727.54665059	   1779.85352916	     85.17527591
96      0.95000000	    623.44818000	   1079.39246000	    171.80344000	    618.75446000	   1073.33508000	    -88.96712000	    423.16211000	   1074.51050000	     53.72158000	    603.32312000	    754.85229000	    215.07388000	    667.84613000	    699.03436000	    120.08400000	    603.70251000	    633.27850000	    203.69791000	    627.49268000	    771.34570000	   -158.39035000	    734.03674000	    757.39410000	   -112.49499000	    660.20508000	    665.69104000	   -153.50220000	    541.75323000	    458.92151000	    186.33897000	    616.35535000	    419.93497000	    133.16499000	    549.29938000	    372.02133000	    190.36278000	    625.29901000	    489.74371000	   -154.59460000	    629.50293000	    418.21506000	   -103.93226000	    577.80383000	    471.89639000	   -155.86266000	    452.69376000	     71.33151000	     95.96391000	    598.62555000	     78.33881000	     70.05779000	    585.23053000	     62.79000000	    175.95575000	    740.29102000	     48.90823000	    120.00063000	    318.63840000	    277.86060000	    -44.07338000	    440.34430000	    160.87198000	    -34.04529000	    412.25180000	    165.49071000	   -128.51598000	    496.98828000	     64.83167000	    -71.44910000	    646.22559000	   1384.36206000	     41.92009000	    558.00659000	   1467.06970000	    259.33279000	    567.33032000	   1507.11169000	   -157.22054000	    573.47894000	   1264.39929000	    301.98972000	    564.18042000	   1270.51868000	   -200.39270000	    537.94928000	   1158.81055000	    332.59738000	    502.73587000	   1182.01660000	   -239.39388000	    712.07172000	    953.26141000	    310.88452000	    675.67023000	    931.42084000	    361.41742000	    592.60803000	    945.04321000	   -206.40100000	    547.60425000	    941.26672000	   -267.09436000	    673.06451000	     39.67105000	    195.96065000	    684.61584000	     46.73662000	     85.94205000	    435.86420000	    102.59859000	   -140.90100000	    465.32269000	     97.55957000	    -41.47995000	    716.33856000	   1601.73767000	    139.11713000	    728.04657000	   1610.44751000	      0.79457000	    727.56641000	   1780.50439000	     85.05804000
97      0.96000000	    621.21500983	   1079.30358719	    172.95332131	    617.55786087	   1074.09362031	    -88.11855396	    421.94490380	   1075.38350601	     54.08964063	    597.89877133	    754.83424602	    215.62964359	    662.28646544	    698.53934482	    120.91447763	    596.78366095	    633.10402854	    203.77024153	    631.93634355	    773.59511058	   -157.85434758	    737.22549822	    761.13542957	   -110.73673448	    665.54928816	    668.54191682	   -152.13203524	    533.22170293	    459.06287547	    186.74218970	    607.07792899	    419.48500880	    133.46802125	    540.13584019	    372.27689532	    190.55852085	    632.95133539	    491.02355857	   -154.20183308	    641.26197052	    419.68450688	   -102.29369138	    587.43349077	    471.34684840	   -154.91343571	    441.87442607	     71.53895758	     95.91305026	    587.81376995	     78.30017266	     69.91946003	    574.18532294	     62.81946963	    175.80456706	    729.42046203	     48.59183678	    120.04367438	    333.89179209	    267.55679001	    -44.20999190	    460.05181963	    156.69471510	    -33.02651242	    433.25572994	    159.64415608	   -127.90746156	    521.32532975	     62.58480807	    -69.92887314	    645.13077091	   1385.01059934	     42.43127109	    557.73493823	   1468.12758468	    259.88548478	    566.68786789	   1507.52579750	   -157.17823088	    574.95268688	   1265.33004784	    302.90411558	    560.36448776	   1270.93495646	   -200.01503260	    539.46867202	   1159.78052493	    333.65650781	    498.87821230	   1183.22698230	   -238.37446284	    715.70068160	    956.43744362	    310.13431899	    680.23106478	    933.62802193	    360.63548867	    589.00327562	    946.24374762	   -205.87987572	    543.78615162	    941.98471815	   -266.43831415	    662.91231961	     39.59974328	    195.77413143	    673.37213772	     46.43672642	     85.90222799	    459.09304142	     97.64557498	   -139.81739621	    488.01461000	     93.74496561	    -40.25958807	    716.54958436	   1602.72832811	    139.18201692	    727.06951757	   1611.10733830	      0.77509259	    726.81805154	   1781.37891566	     85.16900346
98      0.97000000	    620.08881371	   1079.55896916	    173.98146320	    617.20445978	   1074.98966462	    -87.36945829	    420.61578315	   1076.12103375	     54.42601996	    592.20455412	    754.89280602	    216.19013288	    656.18360107	    697.44274427	    121.79795539	    589.21090864	    632.88186480	    204.08179783	    636.10432548	    775.79537199	   -157.17674059	    740.70274549	    764.81592847	   -108.75809507	    670.69950155	    671.19545099	   -150.90713230	    523.97698346	    459.43345047	    186.94910469	    597.93027847	    419.22266486	    133.84337652	    530.92163589	    372.72822138	    190.82843021	    641.50386715	    491.71268243	   -153.38965258	    652.97542808	    421.10719183	   -100.83351785	    597.09879991	    470.43290756	   -153.89504727	    430.64336946	     71.75679930	     95.80162953	    576.53872236	     78.25916286	     69.74502157	    562.67637585	     62.86887523	    175.68205544	    718.07810779	     48.23386639	    120.09509107	    350.53456332	    255.84017507	    -44.21340061	    481.48090760	    151.15590412	    -32.27902671	    455.71365705	    153.10450017	   -127.41661490	    547.49944636	     60.19705618	    -68.70441815	    644.48205696	   1385.50182535	     42.72417639	    557.01476350	   1468.74658917	    260.63794550	    566.10245964	   1507.74051858	   -157.16520808	    575.39365408	   1265.82514687	    303.89437527	    556.61179212	   1271.28873626	   -199.60081946	    540.94403087	   1160.63825363	    334.66649775	    494.71434974	   1184.29759165	   -237.45296406	    719.83094358	    959.69604294	    309.41032421	    684.95887981	    936.15423984	    359.99181196	    585.22137606	    947.33123278	   -205.51977491	    539.36930510	    942.74023105	   -265.40533525	    650.20702557	     39.17720653	    195.65382960	    661.70144186	     46.15248640	     85.86372853	    484.35656551	     92.46145255	   -138.99390617	    512.63740788	     89.62138712	    -39.29202884	    716.24881832	   1603.49135009	    139.10445473	    726.31540167	   1611.78735981	      0.72447173	    725.79717393	   1782.15390446	     85.13492940
